<svg id="Pen_Tool" data-name="Pen Tool" xmlns="http://www.w3.org/2000/svg" viewBox="0 0 1174 747"><defs><style>.cls-1{fill:none;stroke:red;stroke-miterlimit:10;}</style></defs><title>Fourier 1 Redo SVG-01</title><path class="cls-1" d="M49.5 735.5 57.5 727.5 72.5 714.5 76.5 692.5 100.5 669.5 109.5 677.5 125.5 661.5 141.5 661.5 158.5 656.5 170.5 661.5 178.5 665.5 198.5 656.5 220.5 661.5 233.5 671.5 247.5 690.5 262.5 703.5 293.5 707.5 310.5 700.5 315.5 669.5 315.5 656.5 304.5 638.5 331.5 623.5 349.5 653.5 365.5 672.5 377.5 674.5 389.5 663.5 403.5 648.5 397.5 623.5 385.5 583.5 371.5 600.5 353.5 614.5 292.5 640.5 274.5 642.5 246.5 633.5 244.5 676.5 241.5 630.5 210.5 610.5 197.5 574.5 193.5 535.5 203.5 508.5 219.5 497.5 181.5 487.5 146.5 474.5 131.5 456.5 127.5 440.5 139.5 426.5 154.5 426.5 177.5 435.5 197.5 441.5 226.5 460.5 230.5 451.5 198.5 432.5 191.5 426.5 165.5 415.5 146.5 410.5 127.5 392.5 121.5 358.5 134.5 346.5 123.5 327.5 138.5 302.5 146.5 302.5 147.5 281.5 138.5 287.5 113.5 272.5 87.5 247.5 75.5 236.5 98.5 243.5 142.5 275.5 151.5 283.5 151.5 305.5 126.5 301.5 97.5 290.5 73.5 267.5 49.5 236.5 26.5 195.5 15.5 176.5 55.5 193.5 100.5 218.5 140.5 244.5 156.5 263.5 139.5 236.5 162.5 212.5 195.5 189.5 230.5 181.5 268.5 185.5 274.5 190.5 265.5 168.5 275.5 122.5 300.5 66.5 338.5 8.5 341.5 56.5 339.5 96.5 336.5 144.5 323.5 178.5 304.5 202.5 259.5 179.5 319.5 214.5 341.5 251.5 352.5 250.5 364.5 259.5 375.5 279.5 378.5 301.5 368.5 328.5 353.5 368.5 339.5 383.5 327.5 397.5 307.5 402.5 287.5 422.5 317.5 392.5 349.5 380.5 379.5 402.5 419.5 426.5 434.5 446.5 434.5 464.5 418.5 477.5 396.5 473.5 374.5 463.5 356.5 444.5 342.5 437.5 329.5 438.5 349.5 434.5 381.5 474.5 393.5 500.5 397.5 532.5 392.5 564.5 385.5 575.5 390.5 583.5 414.5 561.5 451.5 547.5 478.5 544.5 504.5 550.5 527.5 554.5 563.5 563.5 583.5 565.5 567.5 606.5 562.5 626.5 564.5 643.5 583.5 654.5 597.5 656.5 612.5 639.5 627.5 602.5 645.5 570.5 673.5 579.5 669.5 594.5 670.5 617.5 673.5 640.5 683.5 647.5 715.5 643.5 732.5 637.5 740.5 615.5 734.5 579.5 729.5 567.5 723.5 562.5 720.5 568.5 717.5 573.5 713.5 577.5 703.5 582.5 693.5 583.5 676.5 579.5 626.5 567.5 582.5 563.5 569.5 547.5 558.5 521.5 561.5 492.5 571.5 477.5 576.5 461.5 583.5 458.5 587.5 467.5 591.5 476.5 580.5 454.5 575.5 479.5 562.5 480.5 545.5 495.5 532.5 504.5 520.5 508.5 507.5 496.5 505.5 477.5 510.5 457.5 521.5 450.5 551.5 435.5 570.5 422.5 578.5 417.5 577.5 411.5 594.5 417.5 606.5 419.5 612.5 419.5 588.5 419.5 564.5 402.5 548.5 385.5 537.5 368.5 536.5 342.5 544.5 322.5 530.5 298.5 532.5 266.5 519.5 262.5 516.5 245.5 530.5 226.5 544.5 216.5 554.5 218.5 557.5 222.5 541.5 245.5 535.5 263.5 547.5 229.5 577.5 203.5 616.5 177.5 659.5 169.5 690.5 172.5 722.5 186.5 740.5 207.5 744.5 216.5 764.5 207.5 784.5 213.5 793.5 231.5 790.5 249.5 773.5 261.5 764.5 245.5 772.5 239.5 774.5 229.5 766.5 223.5 758.5 227.5 747.5 219.5 777.5 266.5 780.5 297.5 775.5 323.5 764.5 349.5 748.5 371.5 729.5 391.5 716.5 402.5 720.5 389.5 732.5 410.5 744.5 423.5 753.5 447.5 760.5 482.5 762.5 499.5 758.5 511.5 749.5 519.5 740.5 524.5 726.5 519.5 712.5 507.5 702.5 485.5 696.5 460.5 715.5 515.5 735.5 526.5 735.5 547.5 729.5 562.5 740.5 548.5 778.5 539.5 806.5 556.5 829.5 566.5 842.5 573.5 851.5 573.5 860.5 575.5 866.5 583.5 872.5 595.5 880.5 605.5 891.5 616.5 895.5 625.5 906.5 630.5 930.5 649.5 955.5 672.5 981.5 689.5 987.5 700.5 1001.5 709.5 1008.5 720.5 1008.5 735.5 1014.5 746.5 1173.5 746.5 1173.5 0.5 962.5 0.5 962.5 27.5 979.5 28.5 999.5 34.5 1016.5 48.5 1026.5 62.5 1036.5 44.5 1052.5 34.5 1066.5 35.5 1074.5 43.5 1067.5 57.5 1084.5 52.5 1095.5 56.5 1103.5 66.5 1098.5 84.5 1084.5 100.5 1070.5 103.5 1075.5 114.5 1078.5 126.5 1068.5 141.5 1045.5 148.5 1030.5 152.5 1020.5 148.5 1023.5 142.5 1020.5 133.5 1005.5 129.5 1025.5 134.5 1017.5 156.5 1004.5 164.5 990.5 167.5 976.5 162.5 974.5 144.5 968.5 162.5 953.5 170.5 940.5 172.5 932.5 168.5 929.5 156.5 911.5 158.5 895.5 155.5 886.5 148.5 888.5 128.5 900.5 116.5 912.5 111.5 924.5 107.5 901.5 112.5 890.5 106.5 885.5 92.5 891.5 76.5 910.5 64.5 917.5 61.5 924.5 64.5 922.5 52.5 933.5 37.5 947.5 30.5 958.5 29.5 958.5 0.5 0.5 0.5 0.5 742.5 29.5 742.5 40.5 738.5"/></svg>