<svg id="Pen_Tool" data-name="Pen Tool" xmlns="http://www.w3.org/2000/svg" viewBox="0 0 867.04 763"><defs><style>.cls-1{fill:none;stroke:red;stroke-miterlimit:10;}</style></defs><title>Fourier 4 SVG-01</title><path class="cls-1" d="M89.5 655.5 80.5 676.5 80.5 687.5 80.5 698.5 89.5 707.5 102.5 714.5 112.5 716.5 119.5 716.5 129.5 707.5 136.5 691.5 140.5 669.5 140.5 665.5 149.5 669.5 160.5 670.5 170.5 670.5 182.5 668.5 194.5 665.5 184.5 692.5 181.5 709.5 183.5 716.5 191.5 720.5 204.5 720.5 215.5 720.5 227.5 720.5 234.5 713.5 241.5 700.5 241.5 683.5 235.5 664.5 232.5 651.5 215.5 659.5 197.5 664.5 164.5 672.5 136.5 664.5 85.5 653.5 71.5 633.5 63.5 614.5 60.5 627.5 53.5 632.5 45.5 629.5 48.5 624.5 41.5 622.5 37.5 614.5 40.5 610.5 37.5 603.5 39.5 595.5 43.5 587.5 50.5 587.5 51.5 591.5 53.5 584.5 61.5 588.5 65.5 597.5 64.5 610.5 66.5 591.5 78.5 572.5 84.5 552.5 80.5 524.5 83.5 508.5 96.5 494.5 103.5 487.5 104.5 480.5 94.5 500.5 76.5 509.5 53.5 519.5 34.5 528.5 22.5 534.5 13.5 534.5 4.5 527.5 0.5 517.5 0.5 508.5 3.5 496.5 18.5 486.5 39.5 472.5 63.5 455.5 99.5 438.5 106.5 438.5 95.5 435.5 82.5 429.5 72.5 419.5 68.5 403.5 68.5 386.5 74.5 372.5 79.5 363.5 87.5 355.5 93.5 349.5 103.5 349.5 95.5 341.5 90.5 326.5 89.5 312.5 97.5 295.5 105.5 282.5 93.5 266.5 81.5 247.5 73.5 241.5 64.5 219.5 60.5 196.5 66.5 170.5 70.5 151.5 82.5 167.5 98.5 189.5 112.5 211.5 117.5 218.5 120.5 229.5 123.5 242.5 123.5 261.5 140.5 251.5 160.5 245.5 187.5 245.5 206.5 251.5 227.5 260.5 227.5 241.5 225.5 224.5 227.5 205.5 232.5 183.5 243.5 158.5 258.5 137.5 269.5 124.5 273.5 155.5 275.5 177.5 275.5 191.5 272.5 217.5 264.5 241.5 245.5 271.5 250.5 271.5 258.5 282.5 262.5 294.5 261.5 313.5 259.5 328.5 249.5 338.5 243.5 336.5 253.5 341.5 261.5 347.5 267.5 357.5 270.5 367.5 271.5 378.5 268.5 389.5 263.5 408.5 259.5 417.5 252.5 426.5 244.5 434.5 234.5 441.5 227.5 449.5 223.5 462.5 234.5 457.5 253.5 443.5 277.5 425.5 293.5 416.5 303.5 409.5 312.5 406.5 322.5 406.5 329.5 409.5 334.5 415.5 338.5 425.5 334.5 438.5 326.5 450.5 305.5 466.5 287.5 476.5 269.5 487.5 254.5 496.5 239.5 504.5 231.5 495.5 222.5 490.5 243.5 508.5 247.5 523.5 254.5 542.5 260.5 564.5 264.5 588.5 266.5 599.5 266.5 611.5 255.5 636.5 243.5 647.5 236.5 651.5 244.5 691.5 242.5 762.5 415.5 762.5 421.5 725.5 427.5 740.5 435.5 748.5 451.5 750.5 471.5 749.5 482.5 740.5 492.5 714.5 495.5 702.5 495.5 692.5 504.5 697.5 514.5 699.5 520.5 699.5 527.5 693.5 531.5 690.5 531.5 699.5 531.5 707.5 531.5 718.5 531.5 729.5 533.5 736.5 542.5 743.5 553.5 743.5 564.5 743.5 575.5 738.5 582.5 730.5 586.5 718.5 586.5 703.5 586.5 681.5 586.5 667.5 592.5 660.5 596.5 650.5 596.5 639.5 591.5 622.5 591.5 615.5 601.5 607.5 604.5 598.5 598.5 595.5 593.5 596.5 598.5 589.5 596.5 583.5 591.5 588.5 587.5 593.5 584.5 599.5 584.5 607.5 588.5 613.5 581.5 601.5 584.5 589.5 581.5 570.5 576.5 538.5 572.5 519.5 568.5 503.5 562.5 490.5 555.5 484.5 572.5 507.5 575.5 521.5 581.5 524.5 591.5 530.5 600.5 542.5 613.5 549.5 628.5 551.5 641.5 547.5 647.5 538.5 649.5 527.5 643.5 514.5 631.5 498.5 612.5 477.5 591.5 460.5 569.5 443.5 562.5 443.5 555.5 451.5 564.5 439.5 568.5 440.5 581.5 433.5 594.5 419.5 603.5 400.5 606.5 390.5 609.5 374.5 606.5 358.5 601.5 345.5 595.5 336.5 589.5 327.5 597.5 324.5 606.5 316.5 612.5 308.5 613.5 298.5 613.5 288.5 606.5 278.5 593.5 274.5 578.5 278.5 571.5 285.5 556.5 273.5 539.5 266.5 524.5 262.5 510.5 260.5 497.5 262.5 484.5 265.5 469.5 271.5 465.5 277.5 456.5 273.5 447.5 272.5 438.5 273.5 427.5 281.5 420.5 293.5 421.5 307.5 426.5 318.5 430.5 321.5 430.5 316.5 422.5 324.5 421.5 330.5 422.5 345.5 427.5 355.5 431.5 360.5 437.5 360.5 441.5 365.5 433.5 357.5 423.5 365.5 411.5 381.5 405.5 396.5 403.5 408.5 408.5 426.5 415.5 443.5 425.5 449.5 433.5 454.5 441.5 459.5 448.5 465.5 439.5 454.5 419.5 459.5 401.5 478.5 392.5 492.5 379.5 512.5 363.5 535.5 354.5 553.5 356.5 567.5 364.5 573.5 371.5 576.5 379.5 577.5 390.5 572.5 401.5 566.5 409.5 561.5 414.5 545.5 433.5 501.5 405.5 574.5 395.5 593.5 393.5 619.5 401.5 640.5 417.5 662.5 426.5 675.5 434.5 682.5 437.5 682.5 431.5 693.5 426.5 708.5 422.5 719.5 437.5 679.5 492.5 692.5 503.5 699.5 512.5 702.5 533.5 691.5 563.5 690.5 573.5 687.5 583.5 683.5 590.5 683.5 590.5 762.5 739.5 762.5 859.5 762.5 866.5 137.5 859.5 159.5 843.5 191.5 833.5 207.5 825.5 230.5 830.5 196.5 833.5 170.5 832.5 149.5 811.5 175.5 776.5 220.5 769.5 231.5 780.5 219.5 795.5 139.5 718.5 219.5 756.5 126.5 660.5 187.5 725.5 99.5 606.5 156.5 696.5 65.5 602.5 92.5 682.5 25.5 580.5 29.5 685.5 0.5 691.5 0.5 686.5 6.5 683.5 18.5 682.5 33.5 684.5 40.5 687.5 48.5 691.5 56.5 701.5 72.5 713.5 85.5 730.5 106.5 745.5 119.5 763.5 131.5 779.5 137.5 788.5 140.5 808.5 143.5 834.5 142.5 855.5 141.5 862.5 140.5 863.5 194.5 856.5 756.5 34.5 756.5 34.5 708.5"/></svg>