<svg id="Pen_Tool" data-name="Pen Tool" xmlns="http://www.w3.org/2000/svg" viewBox="0 0 1256 745.01"><defs><style>.cls-1{fill:none;stroke:red;stroke-miterlimit:10;}</style></defs><title>Fourier 6 SVG-01</title><path class="cls-1" d="M60.5 609.51 66.5 626.51 74.5 601.51 87.5 626.51 104.5 588.51 113.5 626.51 130.5 588.51 147.5 588.51 147.5 599.51 155.5 607.51 163.5 617.51 175.5 601.51 192.5 597.51 215.5 588.51 226.5 601.51 246.5 607.51 267.5 595.51 278.5 607.51 294.5 598.51 308.5 588.51 327.5 598.51 316.5 607.51 311.5 611.51 320.5 621.51 309.5 626.51 307.5 637.51 316.5 644.51 321.5 654.51 332.5 660.51 332.5 669.51 348.5 669.51 348.5 679.51 361.5 685.51 374.5 685.51 379.5 678.51 388.5 698.51 396.5 706.51 406.5 715.51 447.5 715.51 499.5 715.51 530.5 715.51 552.5 708.51 556.5 699.51 548.5 687.51 535.5 675.51 524.5 671.51 485.5 668.51 469.5 673.51 496.5 663.51 532.5 666.51 542.5 672.51 551.5 670.51 556.5 663.51 547.5 676.51 560.5 701.51 553.5 715.51 520.5 720.51 468.5 720.51 395.5 720.51 375.5 671.51 366.5 631.51 343.5 613.51 352.5 611.51 330.5 605.51 373.5 642.51 363.5 588.51 360.5 537.51 377.5 478.51 387.5 501.51 412.5 523.51 434.5 536.51 463.5 545.51 485.5 546.51 501.5 546.51 509.5 538.51 495.5 553.51 428.5 542.51 386.5 511.51 375.5 471.51 388.5 441.51 406.5 441.51 438.5 446.51 470.5 462.51 492.5 474.51 498.5 481.51 416.5 433.51 395.5 433.51 397.5 404.51 407.5 384.51 426.5 392.51 393.5 377.51 378.5 348.51 378.5 316.51 391.5 293.51 403.5 287.51 394.5 277.51 393.5 256.51 400.5 244.51 404.5 214.51 412.5 202.51 397.5 133.51 380.5 106.51 377.5 97.51 371.5 132.51 381.5 180.51 396.5 216.51 394.5 239.51 364.5 185.51 352.5 160.51 353.5 97.51 366.5 41.51 390.5 96.51 407.5 120.51 422.5 177.51 423.5 204.51 444.5 180.51 492.5 160.51 544.5 163.51 591.5 189.51 604.5 180.51 611.5 181.51 621.5 156.51 621.5 108.51 621.5 75.51 611.5 60.51 602.5 93.51 595.5 131.51 603.5 171.51 590.5 179.51 577.5 124.51 577.5 87.51 602.5 36.51 615.5 7.51 629.5 53.51 634.5 104.51 640.5 148.51 622.5 185.51 616.5 203.51 629.5 222.51 640.5 239.51 623.5 239.51 611.5 221.51 591.5 221.51 575.5 238.51 580.5 253.51 558.5 267.51 537.5 294.51 529.5 313.51 531.5 337.51 541.5 352.51 528.5 357.51 517.5 377.51 513.5 406.51 518.5 429.51 530.5 459.51 549.5 469.51 561.5 475.51 562.5 463.51 560.5 484.51 562.5 506.51 582.5 512.51 547.5 499.51 532.5 488.51 506.5 480.51 482.5 481.51 469.5 490.51 458.5 505.51 461.5 520.51 488.5 530.51 530.5 546.51 562.5 557.51 576.5 562.51 602.5 554.51 570.5 565.51 555.5 561.51 549.5 576.51 544.5 604.51 549.5 645.51 566.5 681.51 577.5 697.51 591.5 703.51 603.5 683.51 583.5 720.51 600.5 729.51 629.5 739.51 640.5 718.51 649.5 694.51 643.5 725.51 674.5 728.51 687.5 744.51 714.5 744.51 732.5 732.51 732.5 710.51 708.5 725.51 681.5 727.51 718.5 726.51 739.5 700.51 758.5 680.51 758.5 660.51 753.5 637.51 734.5 608.51 717.5 569.51 721.5 542.51 717.5 506.51 716.5 471.51 705.5 450.51 697.5 455.51 677.5 450.51 703.5 461.51 719.5 441.51 733.5 418.51 739.5 388.51 738.5 354.51 731.5 335.51 725.14 328.51 721.5 324.51 726.5 304.51 715.5 280.51 723.5 273.51 730.5 258.51 728.5 238.51 716.5 230.51 697.5 236.51 681.5 250.51 648.5 240.51 697.5 257.51 708.5 248.51 716.5 252.51 705.5 269.51 710.5 275.51 729.5 311.51 729.5 324.51 740.5 348.51 742.5 377.51 740.5 411.51 729.5 439.51 716.5 454.51 722.5 488.51 725.5 564.51 738.5 591.51 758.5 565.51 766.5 557.51 775.5 575.51 780.5 586.51 788.5 568.51 797.5 585.51 815.5 567.51 829.5 573.51 848.5 582.51 871.5 567.51 885.5 564.51 902.5 565.51 914.5 571.51 928.5 575.51 953.5 558.51 976.5 562.51 987.5 569.51 1001.5 573.51 1023.5 548.51 1044.5 534.51 1073.5 551.51 1085.5 562.51 1108.5 571.51 1137.5 554.51 1158.5 559.51 1174.5 566.51 1199.5 563.51 1214.5 551.51 1231.5 540.51 1243.5 538.51 1255.5 553.51 1255.5 7.51 774.5 7.51 770.5 100.51 784.5 75.51 800.5 71.51 811.5 86.51 810.5 104.51 799.5 118.51 789.5 111.51 779.5 120.51 775.5 140.51 780.5 154.51 800.5 174.51 812.5 182.51 836.5 161.51 849.5 138.51 851.5 120.51 843.5 108.51 833.5 107.51 822.5 115.51 809.5 131.51 803.5 123.51 791.5 121.51 782.5 129.51 782.5 145.51 759.5 170.51 733.5 154.51 721.5 127.51 726.5 99.51 745.5 82.51 760.5 81.51 774.5 105.51 774.5 0.51 399.5 5.51 0.5 5.51 0.5 611.51 42.5 610.51"/></svg>