<svg id="Pen_Tool" data-name="Pen Tool" xmlns="http://www.w3.org/2000/svg" viewBox="0 0 1113 728"><defs><style>.cls-1{fill:none;stroke:red;stroke-miterlimit:10;}</style></defs><title>Fourier 3 SVG-01</title><path class="cls-1" d="M82.5,603.5l11-11h9l7,11,18,7,16,8,17,10,35,6h21l18-15,42-15,30-5,62,14,30,21,14,5,22-3,6,24,18,27,32,21,34,11,28,4h30l26-6,27-8,32-21,23-21,18-32-30,48-34,24-46,16-43,4-40-6-47-22-17-11-17-29-7-36,8-38,15-31,28-28-5-13,6-29-25-12-13-3-12,6h-10l-5-3,10-11,8-4h14l2-1-3-6-6-2-10,1-4-2-4-12,4-2,14-1,7,2,7-1,6,6,5,9,2,4,7,1,4,4,11,5-9,20,14-27,11-11,11-8-6-15-2-11-1-9,3-7-6-3-5-6-1-13v-13l3-13,4-11,6-6,5-1,3-2,4-13,11-15,11-7,6-5,3-16,10-9,8-2,7,3,4,4,4,7,4,13,5,5,6,5,8,8,6,9,5,11,8,5,5,6,3,5,2,10,1,14v6l-3,8-4,9-5,3,2,8v12l-1,9-3,9-2,4-2,3,3-1,4,2,6,3,5,4,3,2,2,1,12-6,10-7,11-6,8-3,11-9,12-5,8-1,4-1,4,2,2,5-1,5-4,4-7,2-10,4-6,2-1,2v4l1,3h4l4-1,3,1,3,3,4,3,6,3,2,3,4,11,1,4-6-1-11-2-8-4-10-4-11,1-11,4-7,2-6,2-3,5-4-15-7-9,8,10,4,16,3,5,3,11v12l-1,14,7,3,11,11,12,13,9,14,8,17,3,17,2,9-2,14-3,16-1,5,6-10,16-9,22-9,29-6,14-3,26,3,29,8,26,4,26-3,27-16,24-5,21-2,21,5,21,7,12,2,25-5,17-2,12,2,13-6,13,3,8,6V4.5h-203l2,30,21,2,26,8,27,11,19,15,18,21,13,24,8,24,3,36-3,29-10,28-20,30-26,23-30,16-30,7-19,1-24-3-30-9-27-16-29-33-12-21-9-38,1-36,12-39,19-28,31-28,24-12,29-8,18-2-7-32h-613l-6,11-42,22-46-26,1,54-36,38,49,15,14,43-67-9-1,61-35,36,42,13,24,52,28-41,59-9-35-48,11-51-48,21-46-37,44,32,27-19,26-43,57-4,16,70,50,18,16,49v135h94l22-3,9-11,14-6,15-4,18-4,15-2,12,1s10,4,11,5,11,8,11,8l9,10,3,5,7-16-3-29-8-11-7-4-4-7-11-4-13-3-9,2-8,1-12,1-13,2h-5l-14,5-9,4-7,2-8,7-6,16-2,22,2,10-9,2h-92v-135l28-46,51-8-32-43,11-53-46,22-44-25,2,50-36,36-17-70-36-49,11-51-2-14H4.5v609h49" transform="translate(-4)"/></svg>