<svg id="Pen_Tool" data-name="Pen Tool" xmlns="http://www.w3.org/2000/svg" viewBox="0 0 1108 729"><defs><style>.cls-1{fill:none;stroke:red;stroke-miterlimit:10;}</style></defs><title>Fourier 2 Redo SVG-01</title><path class="cls-1" d="M12.5,615.5l25,30,12,20,12,8v-12l7-17,6-18,11-11h9l-17-5-3-15-4-38,11-49,13-31,23-20-19,26-28-26-17-18-24-36-9-28,12-14h19l30,17,29,22,16,20-22-37-11-41,4-27,14-22h15l15-36,19-7-13-5-13-24-11-49,3-32,24-39,27-32,18,37,10,30v51l-9,40,19,3,29,7,29,17,15,15,17,15,11,26,27-28,36-17,17-9,35-6,32-7-10,21-23,30-26,29-35,25-20,12-13,11-11-7,2-20,11-2,25-14,26-17,25-21,14-19-44,22-36,19-26,21,7,50,1,30-4,28-7,13-9,9-41,9,53-11,19,14v12l-12,19-28,14-46,12,11,15,4,21-4,34-9,26-20,19-21,11-34,3-24-3-25-15-41,47-11,4-17-8-2-7,6,20h30l14-22,18,9,17,2,6-14,6-26-11,51,2,21,10,9h32l15-7,4-10,5-14,1-48,4,48,26,7,85,24,94,4h73l89,4-6-7-27-5-9-14,5-29,6-19-11-16-5-23,4-12,12-7,7-11,7-28-8,41-28,9-11-31,3-51,3-40,30-41,7,6,12,5-37-21-26-23-16-37-7-30,4-29-6,1-12-8-6-16,6-16,16-9,13,4,8,12,32-44,26-18,39-11,26,7,23,11,25,23,8-14,21-4,9,9,5,13v27l-10,10-9,4,3,10,3,21-9,26,5,9-1,21-10,28-20,21-24,18-13-1,17,16,12,16,8,17-14-7,29,18,24,24,15,26v14l-12,11-12-1-30-20v7l5,14,5,18-1,21-4,11,8-1,28,35,13,29v15l-5,16-17,10h-38l-13-7-9-34-4-26,4-28-10,1-22,6-6,6,9,6,6,17,3,22-3,19-5,18h-17l-15-10,51,4,117,10h61l64-6,24-1,8-14-18,9-13-6-2-13,23-6-21-2-7-9-1-15,20-17,13-12,23-5,16,4,9,12v10l-7,9-11,2-14-6-7-11-13-25,10-10,19-7,16,4,11,5,14,9,12,6-15-18-2-13,7-6-20,6-19-7v-13l7-11,11-7h11l20,5,6,8-5,9h-14l-12-7v-5l12-23,27-11,16-5,17-1s10-2,14,1,12,10,12,10l11,8-21-31,3-18,18-3,14,4,11,11,14-12,5,1V23.5h-463l33,64,11-3,11,2,7,3,4,8v7l-3,8-6,8,8-5,12-14,4-12-2-7-13-2,17,4-1,9-12,20,15-13,8-1,7,7,2,9v7l-1-19-8-5h-10l-30,26,21-12,9,3,7,4,5,9-3,11-6,10-9,5-10,2-8-5,4,17-3,9-6,11-9,7-10-2-5-5-4-14,5-18,20-28-25,33-10,2-11-3-12-11-3-11,7-14,10-3h10l9,2,7,5,6,6-4-12-5-8-4-11-1-9,4-6-32-65H12.5v577" transform="translate(-12 -23)"/></svg>