<svg id="Pen_Tool" data-name="Pen Tool" xmlns="http://www.w3.org/2000/svg" viewBox="0 0 1098 757.02"><defs><style>.cls-1{fill:none;stroke:red;stroke-miterlimit:10;}</style></defs><title>Fourier 5 SVG-01</title><path class="cls-1" d="M0.5 690.52 42.5 674.52 53.5 674.52 66.5 668.52 98.5 685.52 110.5 684.52 140.5 662.52 154.5 657.52 163.5 662.52 177.5 657.52 190.5 663.52 214.5 660.52 228.5 666.52 236.5 673.52 246.5 677.52 273.5 662.52 297.5 662.52 307.5 673.52 336.5 673.52 343.5 673.52 384.5 677.52 391.5 681.52 426.5 681.52 413.5 690.52 411.5 714.52 406.5 729.52 382.5 749.52 376.5 756.52 439.5 756.52 451.5 731.52 461.5 702.52 481.5 689.52 475.5 680.52 476.5 600.52 429.5 600.52 427.5 675.52 383.5 672.52 387.5 538.52 369.5 534.52 361.5 528.52 382.5 507.52 503.5 402.52 518.5 402.52 553.5 440.52 559.5 425.52 602.5 429.52 609.5 441.52 609.5 499.52 642.5 532.52 642.5 544.52 637.5 550.52 621.5 549.52 613.5 677.52 605.5 686.52 486.5 684.52 429.5 683.52 613.5 686.52 655.5 672.52 684.5 652.52 743.5 647.52 782.5 640.52 809.5 628.52 823.5 618.52 838.5 620.52 838.5 558.52 807.5 557.52 769.5 544.52 729.5 526.52 721.5 517.52 733.5 510.52 769.5 500.52 782.5 495.52 779.5 488.52 758.5 478.52 757.5 471.52 793.5 463.52 797.5 457.52 769.5 444.52 772.5 438.52 800.5 437.52 819.5 425.52 799.5 409.52 828.5 397.52 838.5 389.52 817.5 379.52 816.5 373.52 838.5 373.52 869.5 344.52 882.5 313.52 898.5 355.52 915.5 375.52 931.5 383.52 931.5 393.52 919.5 395.52 931.5 407.52 956.5 421.52 931.5 431.52 933.5 439.52 966.5 458.52 947.5 471.52 978.5 487.52 955.5 501.52 978.5 523.52 1002.5 535.52 1005.5 540.52 987.5 548.52 945.5 559.52 895.5 563.52 893.5 618.52 925.5 611.52 963.5 605.52 1011.5 611.52 1041.5 609.52 1067.5 597.52 1084.5 593.52 1097.5 593.52 1097.5 5.52 803.5 5.52 801.5 254.52 820.5 248.52 846.5 238.52 848.5 245.52 842.5 246.52 848.5 252.52 842.5 255.52 845.5 263.52 837.5 268.52 826.5 276.52 811.5 290.52 802.5 296.52 810.5 304.52 825.5 308.52 840.5 302.52 843.5 311.52 832.5 323.52 817.5 329.52 802.5 320.52 790.5 311.52 778.5 314.52 764.5 305.52 755.5 290.52 758.5 276.52 744.5 262.52 768.5 260.52 766.5 236.52 762.5 218.52 773.5 242.52 774.5 225.52 780.5 244.52 784.5 228.52 797.5 252.52 797.5 5.52 681.5 5.52 682.5 293.52 712.5 283.52 727.5 280.52 724.5 289.52 730.5 286.52 724.5 297.52 732.5 300.52 722.5 305.52 725.5 313.52 710.5 314.52 693.5 326.52 682.5 330.52 682.5 339.52 686.5 346.52 702.5 347.52 710.5 348.52 714.5 356.52 710.5 361.52 704.5 368.52 694.5 368.52 678.5 362.52 671.5 358.52 671.5 352.52 662.5 352.52 650.5 346.52 642.5 338.52 639.5 325.52 638.5 310.52 630.5 300.52 641.5 296.52 651.5 299.52 658.5 306.52 653.5 289.52 645.5 263.52 646.5 254.52 653.5 262.52 658.5 262.52 660.5 268.52 666.5 264.52 672.5 276.52 679.5 291.52 672.5 5.52 359.5 0.52 426.5 62.52 348.5 25.52 344.5 38.52 454.5 148.52 332.5 64.52 324.5 76.52 369.5 160.52 302.5 110.52 297.5 121.52 374.5 246.52 278.5 138.52 269.5 150.52 304.5 222.52 233.5 180.52 302.5 297.52 192.5 207.52 215.5 277.52 153.5 226.52 217.5 348.52 112.5 242.52 138.5 336.52 60.5 242.52 144.5 404.52 24.5 232.52 44.5 239.52 75.5 243.52 102.5 243.52 140.5 235.52 178.5 217.52 210.5 196.52 224.5 187.52 256.5 163.52 290.5 131.52 317.5 91.52 340.5 49.52 354.5 12.52 322.5 68.52 293.5 112.52 237.5 169.52 172.5 206.52 127.5 225.52 64.5 231.52 25.5 217.52 12.5 205.52 0.5 672.52"/></svg>